<svg width="224" height="224" viewBox="0 0 224 224" fill="none" xmlns="http://www.w3.org/2000/svg">
<g filter="url(#filter0_f_2_519)">
<rect x="64" y="64" width="96" height="96" rx="48" fill="#F44725" fill-opacity="0.2"/>
</g>
<rect x="64" y="64" width="96" height="96" rx="48" fill="#F44725"/>
<g filter="url(#filter1_dd_2_519)">
<rect x="64" y="64" width="96" height="96" rx="48" fill="white" fill-opacity="0.01" shape-rendering="crispEdges"/>
</g>
<path d="M96 130C94.9 130 93.9583 129.608 93.175 128.825C92.3917 128.042 92 127.1 92 126V102C92 100.9 92.3917 99.9583 93.175 99.175C93.9583 98.3917 94.9 98 96 98H116.2C116.067 98.6667 116 99.3333 116 100C116 100.667 116.067 101.333 116.2 102H96L112 112L119.3 107.45C119.767 107.883 120.275 108.258 120.825 108.575C121.375 108.892 121.95 109.167 122.55 109.4L112 116L96 106V126H128V109.8C128.767 109.633 129.483 109.4 130.15 109.1C130.817 108.8 131.433 108.433 132 108V126C132 127.1 131.608 128.042 130.825 128.825C130.042 129.608 129.1 130 128 130H96ZM96 102V126V102ZM126 106C124.333 106 122.917 105.417 121.75 104.25C120.583 103.083 120 101.667 120 100C120 98.3333 120.583 96.9167 121.75 95.75C122.917 94.5833 124.333 94 126 94C127.667 94 129.083 94.5833 130.25 95.75C131.417 96.9167 132 98.3333 132 100C132 101.667 131.417 103.083 130.25 104.25C129.083 105.417 127.667 106 126 106Z" fill="white"/>
<defs>
<filter id="filter0_f_2_519" x="0" y="0" width="224" height="224" filterUnits="userSpaceOnUse" color-interpolation-filters="sRGB">
<feFlood flood-opacity="0" result="BackgroundImageFix"/>
<feBlend mode="normal" in="SourceGraphic" in2="BackgroundImageFix" result="shape"/>
<feGaussianBlur stdDeviation="32" result="effect1_foregroundBlur_2_519"/>
</filter>
<filter id="filter1_dd_2_519" x="52" y="62" width="120" height="120" filterUnits="userSpaceOnUse" color-interpolation-filters="sRGB">
<feFlood flood-opacity="0" result="BackgroundImageFix"/>
<feColorMatrix in="SourceAlpha" type="matrix" values="0 0 0 0 0 0 0 0 0 0 0 0 0 0 0 0 0 0 127 0" result="hardAlpha"/>
<feMorphology radius="4" operator="erode" in="SourceAlpha" result="effect1_dropShadow_2_519"/>
<feOffset dy="4"/>
<feGaussianBlur stdDeviation="3"/>
<feComposite in2="hardAlpha" operator="out"/>
<feColorMatrix type="matrix" values="0 0 0 0 0.956863 0 0 0 0 0.278431 0 0 0 0 0.145098 0 0 0 0.3 0"/>
<feBlend mode="normal" in2="BackgroundImageFix" result="effect1_dropShadow_2_519"/>
<feColorMatrix in="SourceAlpha" type="matrix" values="0 0 0 0 0 0 0 0 0 0 0 0 0 0 0 0 0 0 127 0" result="hardAlpha"/>
<feMorphology radius="3" operator="erode" in="SourceAlpha" result="effect2_dropShadow_2_519"/>
<feOffset dy="10"/>
<feGaussianBlur stdDeviation="7.5"/>
<feComposite in2="hardAlpha" operator="out"/>
<feColorMatrix type="matrix" values="0 0 0 0 0.956863 0 0 0 0 0.278431 0 0 0 0 0.145098 0 0 0 0.3 0"/>
<feBlend mode="normal" in2="effect1_dropShadow_2_519" result="effect2_dropShadow_2_519"/>
<feBlend mode="normal" in="SourceGraphic" in2="effect2_dropShadow_2_519" result="shape"/>
</filter>
</defs>
</svg>
