<svg width="30" height="30" viewBox="0 0 30 30" fill="none" xmlns="http://www.w3.org/2000/svg">
<path d="M10.5 18.375C9.975 18.375 9.53125 18.1937 9.16875 17.8312C8.80625 17.4687 8.625 17.025 8.625 16.5C8.625 15.975 8.80625 15.5312 9.16875 15.1687C9.53125 14.8062 9.975 14.625 10.5 14.625C11.025 14.625 11.4688 14.8062 11.8313 15.1687C12.1938 15.5312 12.375 15.975 12.375 16.5C12.375 17.025 12.1938 17.4687 11.8313 17.8312C11.4688 18.1937 11.025 18.375 10.5 18.375ZM19.5 18.375C18.975 18.375 18.5313 18.1937 18.1688 17.8312C17.8063 17.4687 17.625 17.025 17.625 16.5C17.625 15.975 17.8063 15.5312 18.1688 15.1687C18.5313 14.8062 18.975 14.625 19.5 14.625C20.025 14.625 20.4687 14.8062 20.8312 15.1687C21.1937 15.5312 21.375 15.975 21.375 16.5C21.375 17.025 21.1937 17.4687 20.8312 17.8312C20.4687 18.1937 20.025 18.375 19.5 18.375ZM15 27C18.35 27 21.1875 25.8375 23.5125 23.5125C25.8375 21.1875 27 18.35 27 15C27 14.4 26.9625 13.8188 26.8875 13.2563C26.8125 12.6938 26.675 12.15 26.475 11.625C25.95 11.75 25.425 11.8438 24.9 11.9062C24.375 11.9688 23.825 12 23.25 12C20.975 12 18.825 11.5125 16.8 10.5375C14.775 9.5625 13.05 8.2 11.625 6.45C10.825 8.4 9.68125 10.0938 8.19375 11.5312C6.70625 12.9688 4.975 14.05 3 14.775C3 14.825 3 14.8625 3 14.8875C3 14.9125 3 14.95 3 15C3 18.35 4.1625 21.1875 6.4875 23.5125C8.8125 25.8375 11.65 27 15 27ZM15 30C12.925 30 10.975 29.6063 9.15 28.8188C7.325 28.0313 5.7375 26.9625 4.3875 25.6125C3.0375 24.2625 1.96875 22.675 1.18125 20.85C0.39375 19.025 0 17.075 0 15C0 12.925 0.39375 10.975 1.18125 9.15C1.96875 7.325 3.0375 5.7375 4.3875 4.3875C5.7375 3.0375 7.325 1.96875 9.15 1.18125C10.975 0.39375 12.925 0 15 0C17.075 0 19.025 0.39375 20.85 1.18125C22.675 1.96875 24.2625 3.0375 25.6125 4.3875C26.9625 5.7375 28.0313 7.325 28.8188 9.15C29.6063 10.975 30 12.925 30 15C30 17.075 29.6063 19.025 28.8188 20.85C28.0313 22.675 26.9625 24.2625 25.6125 25.6125C24.2625 26.9625 22.675 28.0313 20.85 28.8188C19.025 29.6063 17.075 30 15 30ZM12.975 3.1875C14.025 4.9375 15.45 6.34375 17.25 7.40625C19.05 8.46875 21.05 9 23.25 9C23.6 9 23.9375 8.98125 24.2625 8.94375C24.5875 8.90625 24.925 8.8625 25.275 8.8125C24.225 7.0625 22.8 5.65625 21 4.59375C19.2 3.53125 17.2 3 15 3C14.65 3 14.3125 3.01875 13.9875 3.05625C13.6625 3.09375 13.325 3.1375 12.975 3.1875ZM3.6375 11.2125C4.9125 10.4875 6.025 9.55 6.975 8.4C7.925 7.25 8.6375 5.9625 9.1125 4.5375C7.8375 5.2625 6.725 6.2 5.775 7.35C4.825 8.5 4.1125 9.7875 3.6375 11.2125Z" fill="#FFB7A8"/>
</svg>
