<svg width="30" height="30" viewBox="0 0 30 30" fill="none" xmlns="http://www.w3.org/2000/svg">
<path d="M11.25 3.75H5C4.30964 3.75 3.75 4.30964 3.75 5V13.75C3.75 14.4404 4.30964 15 5 15H11.25C11.9404 15 12.5 14.4404 12.5 13.75V5C12.5 4.30964 11.9404 3.75 11.25 3.75Z" stroke="#878787" stroke-width="3" stroke-linecap="round" stroke-linejoin="round"/>
<path d="M25 3.75H18.75C18.0596 3.75 17.5 4.30964 17.5 5V8.75C17.5 9.44036 18.0596 10 18.75 10H25C25.6904 10 26.25 9.44036 26.25 8.75V5C26.25 4.30964 25.6904 3.75 25 3.75Z" stroke="#878787" stroke-width="3" stroke-linecap="round" stroke-linejoin="round"/>
<path d="M25 15H18.75C18.0596 15 17.5 15.5596 17.5 16.25V25C17.5 25.6904 18.0596 26.25 18.75 26.25H25C25.6904 26.25 26.25 25.6904 26.25 25V16.25C26.25 15.5596 25.6904 15 25 15Z" stroke="#878787" stroke-width="3" stroke-linecap="round" stroke-linejoin="round"/>
<path d="M11.25 20H5C4.30964 20 3.75 20.5596 3.75 21.25V25C3.75 25.6904 4.30964 26.25 5 26.25H11.25C11.9404 26.25 12.5 25.6904 12.5 25V21.25C12.5 20.5596 11.9404 20 11.25 20Z" stroke="#878787" stroke-width="3" stroke-linecap="round" stroke-linejoin="round"/>
</svg>
