<svg width="35" height="35" viewBox="0 0 35 35" fill="none" xmlns="http://www.w3.org/2000/svg">
<path d="M5.83325 27.7082V14.5832C5.83325 14.1214 5.93679 13.6839 6.14388 13.2707C6.35096 12.8575 6.63631 12.5172 6.99992 12.2498L15.7499 5.68734C16.2603 5.29845 16.8437 5.104 17.4999 5.104C18.1562 5.104 18.7395 5.29845 19.2499 5.68734L27.9999 12.2498C28.3645 12.5172 28.6503 12.8575 28.8574 13.2707C29.0645 13.6839 29.1676 14.1214 29.1666 14.5832V27.7082C29.1666 28.5103 28.8808 29.1971 28.3091 29.7688C27.7374 30.3405 27.051 30.6258 26.2499 30.6248H21.8749C21.4617 30.6248 21.1156 30.4848 20.8366 30.2048C20.5576 29.9248 20.4176 29.5787 20.4166 29.1665V21.8748C20.4166 21.4616 20.2766 21.1155 19.9966 20.8365C19.7166 20.5575 19.3705 20.4175 18.9583 20.4165H16.0416C15.6284 20.4165 15.2823 20.5565 15.0033 20.8365C14.7242 21.1165 14.5842 21.4626 14.5833 21.8748V29.1665C14.5833 29.5797 14.4433 29.9263 14.1633 30.2063C13.8833 30.4863 13.5371 30.6258 13.1249 30.6248H8.74992C7.94784 30.6248 7.26145 30.3395 6.69075 29.7688C6.12006 29.1981 5.83422 28.5112 5.83325 27.7082Z" fill="black" fill-opacity="0.47"/>
</svg>
