<svg width="66" height="62" viewBox="0 0 66 62" fill="none" xmlns="http://www.w3.org/2000/svg">
<path d="M8.025 29.1C5.778 29.1 3.87875 28.3125 2.32725 26.7375C0.77575 25.1625 0 23.25 0 21C0 18.75 0.776056 16.8375 2.32817 15.2625C3.88028 13.6875 5.78028 12.9 8.02817 12.9C10.2761 12.9 12.1875 13.6875 13.7625 15.2625C15.3375 16.8375 16.125 18.75 16.125 21C16.125 23.25 15.342 25.1625 13.776 26.7375C12.21 28.3125 10.293 29.1 8.025 29.1ZM22.8032 16.125C20.5553 16.125 18.6553 15.3489 17.1032 13.7968C15.5511 12.2447 14.775 10.3447 14.775 8.09683C14.775 5.84894 15.5511 3.9375 17.1032 2.3625C18.6553 0.7875 20.5553 0 22.8032 0C25.0511 0 26.9625 0.783 28.5375 2.349C30.1125 3.915 30.9 5.832 30.9 8.1C30.9 10.347 30.1125 12.2462 28.5375 13.7977C26.9625 15.3492 25.0511 16.125 22.8032 16.125ZM42.4468 16.125C40.1989 16.125 38.2875 15.3489 36.7125 13.7968C35.1375 12.2447 34.35 10.3447 34.35 8.09683C34.35 5.84894 35.133 3.9375 36.699 2.3625C38.265 0.7875 40.182 0 42.45 0C44.697 0 46.5962 0.7875 48.1477 2.3625C49.6992 3.9375 50.475 5.84894 50.475 8.09683C50.475 10.3447 49.6989 12.2447 48.1468 13.7968C46.5947 15.3489 44.6947 16.125 42.4468 16.125ZM57.2218 29.1C54.9739 29.1 53.0625 28.3125 51.4875 26.7375C49.9125 25.1625 49.125 23.25 49.125 21C49.125 18.75 49.908 16.8375 51.474 15.2625C53.04 13.6875 54.957 12.9 57.225 12.9C59.472 12.9 61.3713 13.6875 62.9227 15.2625C64.4743 16.8375 65.25 18.75 65.25 21C65.25 23.25 64.4739 25.1625 62.9218 26.7375C61.3697 28.3125 59.4697 29.1 57.2218 29.1ZM15.9 61.8C13.35 61.8 11.2375 60.85 9.5625 58.95C7.8875 57.05 7.05 54.775 7.05 52.125C7.05 49.325 8.0125 46.9125 9.9375 44.8875C11.8625 42.8625 13.7 40.8 15.45 38.7C16.85 36.95 18.125 35.15 19.275 33.3C20.425 31.45 21.75 29.7 23.25 28.05C24.4462 26.62 25.8328 25.4375 27.4097 24.5025C28.9866 23.5675 30.725 23.1 32.625 23.1C34.525 23.1 36.2625 23.55 37.8375 24.45C39.4125 25.35 40.825 26.5 42.075 27.9C43.5342 29.5604 44.8239 31.3505 45.9444 33.2703C47.0648 35.1901 48.35 37 49.8 38.7C51.55 40.8 53.3875 42.8625 55.3125 44.8875C57.2375 46.9125 58.2 49.325 58.2 52.125C58.2 54.775 57.3625 57.05 55.6875 58.95C54.0125 60.85 51.9 61.8 49.35 61.8C46.5 61.8 43.7125 61.5625 40.9875 61.0875C38.2625 60.6125 35.475 60.375 32.625 60.375C29.775 60.375 26.9875 60.6125 24.2625 61.0875C21.5375 61.5625 18.75 61.8 15.9 61.8Z" fill="white"/>
</svg>
