<svg width="128" height="128" viewBox="0 0 128 128" fill="none" xmlns="http://www.w3.org/2000/svg">
<rect width="128" height="128" rx="64" fill="#E0F2F1"/>
<rect x="16" y="16" width="96" height="96" rx="48" fill="#FFF3E0"/>
<path d="M64 84C61.2333 84 58.6333 83.475 56.2 82.425C53.7667 81.375 51.65 79.95 49.85 78.15C48.05 76.35 46.625 74.2333 45.575 71.8C44.525 69.3667 44 66.7667 44 64H48C48 66.2 48.4167 68.275 49.25 70.225C50.0833 72.175 51.225 73.875 52.675 75.325C54.125 76.775 55.825 77.925 57.775 78.775C59.725 79.625 61.8 80.05 64 80.05C68.4667 80.05 72.25 78.5 75.35 75.4C78.45 72.3 80 68.5167 80 64.05C80 59.5833 78.45 55.8 75.35 52.7C72.25 49.6 68.4667 48.05 64 48.05C61.0333 48.05 58.3417 48.775 55.925 50.225C53.5083 51.675 51.6 53.6 50.2 56H56V60H44V48H48V52C49.8333 49.5667 52.1333 47.625 54.9 46.175C57.6667 44.725 60.7 44 64 44C66.7667 44 69.3667 44.525 71.8 45.575C74.2333 46.625 76.35 48.05 78.15 49.85C79.95 51.65 81.375 53.7667 82.425 56.2C83.475 58.6333 84 61.2333 84 64C84 66.7667 83.475 69.3667 82.425 71.8C81.375 74.2333 79.95 76.35 78.15 78.15C76.35 79.95 74.2333 81.375 71.8 82.425C69.3667 83.475 66.7667 84 64 84ZM60 72C59.4333 72 58.9583 71.8083 58.575 71.425C58.1917 71.0417 58 70.5667 58 70V64C58 63.4333 58.1917 62.9583 58.575 62.575C58.9583 62.1917 59.4333 62 60 62V60C60 58.9 60.3917 57.9583 61.175 57.175C61.9583 56.3917 62.9 56 64 56C65.1 56 66.0417 56.3917 66.825 57.175C67.6083 57.9583 68 58.9 68 60V62C68.5667 62 69.0417 62.1917 69.425 62.575C69.8083 62.9583 70 63.4333 70 64V70C70 70.5667 69.8083 71.0417 69.425 71.425C69.0417 71.8083 68.5667 72 68 72H60ZM62 62H66V60C66 59.4333 65.8083 58.9583 65.425 58.575C65.0417 58.1917 64.5667 58 64 58C63.4333 58 62.9583 58.1917 62.575 58.575C62.1917 58.9583 62 59.4333 62 60V62Z" fill="#F44725"/>
</svg>
