<svg width="128" height="128" viewBox="0 0 128 128" fill="none" xmlns="http://www.w3.org/2000/svg">
<rect width="128" height="128" rx="64" fill="#E97963" fill-opacity="0.1"/>
<path d="M64 89C60.5417 89 57.2917 88.3438 54.25 87.0312C51.2083 85.7188 48.5625 83.9375 46.3125 81.6875C44.0625 79.4375 42.2812 76.7917 40.9688 73.75C39.6562 70.7083 39 67.4583 39 64H44C44 66.75 44.5208 69.3438 45.5625 71.7812C46.6042 74.2188 48.0312 76.3438 49.8438 78.1562C51.6562 79.9688 53.7812 81.4062 56.2188 82.4688C58.6562 83.5312 61.25 84.0625 64 84.0625C69.5833 84.0625 74.3125 82.125 78.1875 78.25C82.0625 74.375 84 69.6458 84 64.0625C84 58.4792 82.0625 53.75 78.1875 49.875C74.3125 46 69.5833 44.0625 64 44.0625C60.2917 44.0625 56.9271 44.9688 53.9062 46.7812C50.8854 48.5938 48.5 51 46.75 54H54V59H39V44H44V49C46.2917 45.9583 49.1667 43.5312 52.625 41.7188C56.0833 39.9062 59.875 39 64 39C67.4583 39 70.7083 39.6562 73.75 40.9688C76.7917 42.2812 79.4375 44.0625 81.6875 46.3125C83.9375 48.5625 85.7188 51.2083 87.0312 54.25C88.3438 57.2917 89 60.5417 89 64C89 67.4583 88.3438 70.7083 87.0312 73.75C85.7188 76.7917 83.9375 79.4375 81.6875 81.6875C79.4375 83.9375 76.7917 85.7188 73.75 87.0312C70.7083 88.3438 67.4583 89 64 89ZM59 74C58.2917 74 57.6979 73.7604 57.2188 73.2812C56.7396 72.8021 56.5 72.2083 56.5 71.5V64C56.5 63.2917 56.7396 62.6979 57.2188 62.2188C57.6979 61.7396 58.2917 61.5 59 61.5V59C59 57.625 59.4896 56.4479 60.4688 55.4688C61.4479 54.4896 62.625 54 64 54C65.375 54 66.5521 54.4896 67.5312 55.4688C68.5104 56.4479 69 57.625 69 59V61.5C69.7083 61.5 70.3021 61.7396 70.7812 62.2188C71.2604 62.6979 71.5 63.2917 71.5 64V71.5C71.5 72.2083 71.2604 72.8021 70.7812 73.2812C70.3021 73.7604 69.7083 74 69 74H59ZM61.5 61.5H66.5V59C66.5 58.2917 66.2604 57.6979 65.7812 57.2188C65.3021 56.7396 64.7083 56.5 64 56.5C63.2917 56.5 62.6979 56.7396 62.2188 57.2188C61.7396 57.6979 61.5 58.2917 61.5 59V61.5Z" fill="#E97963"/>
<rect x="2" y="2" width="124" height="124" rx="62" stroke="#E97963" stroke-opacity="0.2" stroke-width="4" stroke-dasharray="8 4"/>
</svg>
