<svg width="36" height="33" viewBox="0 0 36 33" fill="none" xmlns="http://www.w3.org/2000/svg">
<path d="M17.7125 27C21.0625 27 23.9 25.8312 26.225 23.4937C28.55 21.1562 29.7125 18.325 29.7125 15C29.7125 14.225 29.65 13.4812 29.525 12.7688C29.4 12.0563 29.2 11.3625 28.925 10.6875C28.25 11.1125 27.5375 11.4375 26.7875 11.6625C26.0375 11.8875 25.2625 12 24.4625 12C23.1125 12 21.8438 11.6938 20.6562 11.0813C19.4688 10.4688 18.4875 9.6 17.7125 8.475C16.9375 9.6 15.9563 10.4688 14.7688 11.0813C13.5813 11.6938 12.3125 12 10.9625 12C10.1625 12 9.3875 11.8875 8.6375 11.6625C7.8875 11.4375 7.175 11.1125 6.5 10.6875C6.225 11.3625 6.025 12.0563 5.9 12.7688C5.775 13.4812 5.7125 14.225 5.7125 15C5.7125 18.325 6.88125 21.1562 9.21875 23.4937C11.5562 25.8312 14.3875 27 17.7125 27ZM13.2125 18.375C13.7375 18.375 14.1812 18.1937 14.5437 17.8312C14.9062 17.4688 15.0875 17.025 15.0875 16.5C15.0875 15.975 14.9062 15.5312 14.5437 15.1687C14.1812 14.8062 13.7375 14.625 13.2125 14.625C12.6875 14.625 12.2438 14.8062 11.8813 15.1687C11.5188 15.5312 11.3375 15.975 11.3375 16.5C11.3375 17.025 11.5188 17.4688 11.8813 17.8312C12.2438 18.1937 12.6875 18.375 13.2125 18.375ZM22.2125 18.375C22.7375 18.375 23.1813 18.1937 23.5438 17.8312C23.9062 17.4688 24.0875 17.025 24.0875 16.5C24.0875 15.975 23.9062 15.5312 23.5438 15.1687C23.1813 14.8062 22.7375 14.625 22.2125 14.625C21.6875 14.625 21.2437 14.8062 20.8813 15.1687C20.5188 15.5312 20.3375 15.975 20.3375 16.5C20.3375 17.025 20.5188 17.4688 20.8813 17.8312C21.2437 18.1937 21.6875 18.375 22.2125 18.375ZM10.9625 9C12.4125 9 13.65 8.4875 14.675 7.4625C15.7 6.4375 16.2125 5.2 16.2125 3.75V3.075C14.5125 3.275 12.95 3.8125 11.525 4.6875C10.1 5.5625 8.9125 6.675 7.9625 8.025C8.4125 8.325 8.8875 8.5625 9.3875 8.7375C9.8875 8.9125 10.4125 9 10.9625 9ZM24.4625 9C25.0125 9 25.5375 8.91875 26.0375 8.75625C26.5375 8.59375 27.0125 8.35 27.4625 8.025C26.5125 6.675 25.3313 5.5625 23.9188 4.6875C22.5063 3.8125 20.9375 3.275 19.2125 3.075V3.75C19.2125 5.2 19.725 6.4375 20.75 7.4625C21.775 8.4875 23.0125 9 24.4625 9ZM3.0125 33C2.1375 33 1.4 32.675 0.8 32.025C0.2 31.375 -0.0625 30.6125 0.0125 29.7375L1.3625 14.925C1.5625 12.825 2.13125 10.8625 3.06875 9.0375C4.00625 7.2125 5.20625 5.63125 6.66875 4.29375C8.13125 2.95625 9.80625 1.90625 11.6938 1.14375C13.5813 0.38125 15.5875 0 17.7125 0C19.8375 0 21.8438 0.38125 23.7313 1.14375C25.6188 1.90625 27.2938 2.95625 28.7563 4.29375C30.2188 5.63125 31.4188 7.2125 32.3563 9.0375C33.2938 10.8625 33.8625 12.825 34.0625 14.925L35.4125 29.7375C35.4875 30.6125 35.225 31.375 34.625 32.025C34.025 32.675 33.2875 33 32.4125 33H3.0125ZM17.7125 30C14.5875 30 11.775 29.1312 9.275 27.3937C6.775 25.6562 4.9625 23.425 3.8375 20.7L3.0125 30H32.4125L31.5875 20.7C30.4625 23.425 28.6562 25.6562 26.1688 27.3937C23.6813 29.1312 20.8625 30 17.7125 30ZM17.7125 30C20.8625 30 23.6813 30 26.1688 30C28.6562 30 30.4625 30 31.5875 30H32.4125H3.0125H3.8375C4.9625 30 6.775 30 9.275 30C11.775 30 14.5875 30 17.7125 30Z" fill="#FFB7A8"/>
</svg>
