<svg width="120" height="120" viewBox="0 0 120 120" fill="none" xmlns="http://www.w3.org/2000/svg">
<mask id="path-1-inside-1_1_447" fill="white">
<path d="M20 26C20 17.1634 27.1634 10 36 10H84C92.8366 10 100 17.1634 100 26V74C100 82.8366 92.8366 90 84 90H36C27.1634 90 20 82.8366 20 74V26Z"/>
</mask>
<path d="M20 26C20 17.1634 27.1634 10 36 10H84C92.8366 10 100 17.1634 100 26V74C100 82.8366 92.8366 90 84 90H36C27.1634 90 20 82.8366 20 74V26Z" fill="#4ADE80"/>
<path d="M20 10H100H20M100 98H20V82H100V98ZM100 82M20 90V10V90M20 90M100 10V90V10" fill="#4ADE80" fill-opacity="0.3" mask="url(#path-1-inside-1_1_447)"/>
<g filter="url(#filter0_dd_1_447)">
<rect x="20" y="10" width="80" height="80" rx="16" fill="white" fill-opacity="0.01" shape-rendering="crispEdges"/>
</g>
<path d="M50.9 61H69.1L75.25 42.55L60 31.9L44.75 42.55L50.9 61ZM48 65L40 41L60 27L80 41L72 65H48Z" fill="white"/>
<defs>
<filter id="filter0_dd_1_447" x="0" y="0" width="120" height="120" filterUnits="userSpaceOnUse" color-interpolation-filters="sRGB">
<feFlood flood-opacity="0" result="BackgroundImageFix"/>
<feColorMatrix in="SourceAlpha" type="matrix" values="0 0 0 0 0 0 0 0 0 0 0 0 0 0 0 0 0 0 127 0" result="hardAlpha"/>
<feMorphology radius="6" operator="erode" in="SourceAlpha" result="effect1_dropShadow_1_447"/>
<feOffset dy="8"/>
<feGaussianBlur stdDeviation="5"/>
<feComposite in2="hardAlpha" operator="out"/>
<feColorMatrix type="matrix" values="0 0 0 0 0 0 0 0 0 0 0 0 0 0 0 0 0 0 0.1 0"/>
<feBlend mode="normal" in2="BackgroundImageFix" result="effect1_dropShadow_1_447"/>
<feColorMatrix in="SourceAlpha" type="matrix" values="0 0 0 0 0 0 0 0 0 0 0 0 0 0 0 0 0 0 127 0" result="hardAlpha"/>
<feMorphology radius="5" operator="erode" in="SourceAlpha" result="effect2_dropShadow_1_447"/>
<feOffset dy="10"/>
<feGaussianBlur stdDeviation="12.5"/>
<feComposite in2="hardAlpha" operator="out"/>
<feColorMatrix type="matrix" values="0 0 0 0 0 0 0 0 0 0 0 0 0 0 0 0 0 0 0.1 0"/>
<feBlend mode="normal" in2="effect1_dropShadow_1_447" result="effect2_dropShadow_1_447"/>
<feBlend mode="normal" in="SourceGraphic" in2="effect2_dropShadow_1_447" result="shape"/>
</filter>
</defs>
</svg>
